<svg id="Layer_1" enable-background="new 0 0 512.22 512.22" height="512" viewBox="0 0 512.22 512.22" width="512" xmlns="http://www.w3.org/2000/svg"><path d="m465.69 320.87 11.07 62.64-59.78 21.72-41.53-62.9-17.54-10.12 12.59 46.98-28.97 7.76-20.36-75.96-35.85-20.69c-4.15 3.55-8.96 6.37-14.21 8.23v41.37l55.61 55.6-21.22 21.22-34.39-34.4v20.25l33.6 67.21-48.6 42.44-48.6-42.44 33.6-67.21v-20.25l-34.39 34.4-21.22-21.22 55.61-55.6v-41.37c-5.25-1.86-10.06-4.68-14.21-8.23l-35.85 20.69-20.36 75.96-28.97-7.76 12.59-46.98-17.54 10.12-41.53 62.9-59.78-21.72 11.07-62.64 75.24-4.52 17.54-10.12-46.99-12.59 7.77-28.98 75.96 20.35 35.83-20.68c-.5-2.67-.77-5.41-.77-8.22s.27-5.55.77-8.22l-35.83-20.68-75.96 20.35-7.77-28.98 46.99-12.59-17.54-10.12-75.24-4.52-11.07-62.63 59.78-21.73 41.53 62.9 17.54 10.12-12.59-46.98 28.97-7.76 20.36 75.96 35.85 20.69c4.15-3.55 8.96-6.37 14.21-8.23v-41.37l-55.61-55.6 21.22-21.22 34.39 34.4v-20.25l-33.6-67.21 48.6-42.44 48.6 42.44-33.6 67.21v20.25l34.39-34.4 21.22 21.22-55.61 55.6v41.37c5.25 1.86 10.06 4.68 14.21 8.23l35.85-20.69 20.36-75.96 28.97 7.76-12.59 46.98 17.54-10.12 41.53-62.9 59.78 21.73-11.07 62.63-75.24 4.52-17.54 10.12 46.99 12.59-7.77 28.98-75.96-20.35-35.83 20.68c.5 2.67.77 5.41.77 8.22s-.27 5.55-.77 8.22l35.83 20.68 75.96-20.35 7.77 28.98-46.99 12.59 17.54 10.12z" fill="#76e2f8"/><path d="m465.69 320.87 11.07 62.64-59.78 21.72-41.53-62.9-17.54-10.12 12.59 46.98-28.97 7.76-20.36-75.96-35.85-20.69c-4.15 3.55-8.96 6.37-14.21 8.23v41.37l55.61 55.6-21.22 21.22-34.39-34.4v20.25l33.6 67.21-48.6 42.44v-512.22l48.6 42.44-33.6 67.21v20.25l34.39-34.4 21.22 21.22-55.61 55.6v41.37c5.25 1.86 10.06 4.68 14.21 8.23l35.85-20.69 20.36-75.96 28.97 7.76-12.59 46.98 17.54-10.12 41.53-62.9 59.78 21.73-11.07 62.63-75.24 4.52-17.54 10.12 46.99 12.59-7.77 28.98-75.96-20.35-35.83 20.68c.5 2.67.77 5.41.77 8.22s-.27 5.55-.77 8.22l35.83 20.68 75.96-20.35 7.77 28.98-46.99 12.59 17.54 10.12z" fill="#4bb9ec"/></svg>